<?xml version="1.0" encoding="UTF-8"?>
<svg id="Capa_2" data-name="Capa 2" xmlns="http://www.w3.org/2000/svg" viewBox="0 0 1484.35 1484.46">
  <defs>
    <style>
      .cls-1 {
        fill: #dfbcff;
      }

      .cls-2 {
        fill: #8738d1;
      }
    </style>
  </defs>
  <g id="Capa_1-2" data-name="Capa 1">
    <g id="_9110d82d4d" data-name="9110d82d4d">
      <path class="cls-2" d="M71.35,1.3l10.92-.08,11.99-.03,12.63-.07c13.84-.06,27.69-.11,41.54-.14l14.36-.04c22.54-.07,45.09-.12,67.63-.14,25.88-.03,51.75-.12,77.63-.27,20.08-.1,40.16-.16,60.24-.16,11.95,0,23.9-.04,35.84-.13,81.54-.52,153.16,6.64,225.5,46.67,39.61,22.95,83.23,55.62,109.09,93.95v6.95h6.95l2.73-6.04c19-35.38,56.33-61.72,89.17-83.25,50.23-30.72,105.91-53.57,165.3-57.37,11.24-.28,22.47-.36,33.71-.35l12.83-.07c11.49-.05,22.98-.08,34.48-.08,7.2,0,14.39-.01,21.6-.03,25.17-.06,50.32-.1,75.48-.09,23.39,0,46.77-.07,70.15-.18,20.15-.09,40.31-.13,60.47-.12,12,0,24.01-.02,36.01-.09,13.38-.08,26.76-.05,40.13,0l11.92-.12c17.25.14,31.28.84,46.96,8.43,10.55,6.58,16.73,11.27,23.63,21.42l4.98,7.07c4.89,8.23,7.31,15.26,7.86,24.84v9.31s.06,10.76.06,10.76v11.85l.03,12.58c.03,11.53.05,23.06.06,34.6.01,12.44.04,24.87.08,37.3.07,30.05.1,60.1.14,90.15l.05,42.48c.08,62.37.14,124.76.16,187.14.03,49.15.11,98.29.23,147.44.12,50.49.18,100.98.19,151.48,0,28.34.03,56.67.13,85.01.08,24.15.1,48.29.07,72.44-.01,12.3,0,24.61.05,36.92.29,55.5-.05,102.51-24.95,153.16-21.68,36.82-48.44,65.02-84.52,87.99-39.74,21.99-78.72,29.37-123.8,29.37-4.67.03-9.35.08-14.01.12-12.74.11-25.47.16-38.22.19-13.76.05-27.53.15-41.29.25-26.9.18-53.79.3-80.69.38-21.86.08-43.71.17-65.57.27-185.2.87-370.39.98-555.59.16-21.12-.09-42.25-.16-63.37-.2-25.76-.05-51.51-.17-77.25-.35-13.11-.09-26.22-.16-39.32-.17-14.24,0-28.47-.13-42.71-.26l-12.36.03c-40.06-.56-77.68-10.28-112.34-30.68-35.77-23.56-63.32-51.2-84.17-88.89C7.92,1108.74.14,1075.43.38,1037.96l-.03-10.44c0-7.21.01-14.42.06-21.64.05-11.01,0-22.03-.07-33.03,0-7.04.02-14.09.04-21.13l-.06-9.91c.15-14.3.91-24.43,6.26-37.85,10.16-15.86,23.11-28.63,39.89-37.49,16.31-5.62,32.27-5.4,49.16-2.56,15.44,6.17,28.67,14.12,39.88,26.52,5.71,8.18,9.1,16.16,12.26,25.62.41,9.67.65,19.27.73,28.94l.3,17.58c.14,9.2.26,18.41.36,27.62.1,8.91.26,17.81.43,26.72l.03,8.22c.42,19.06,4.31,33.36,12.05,50.83,7.57,11.91,15.77,19.9,28.03,27.16,14.85,6.01,26.91,8.05,42.94,8.15l11.58.11,12.65.05,13.36.1c12.08.1,24.16.17,36.24.24,12.63.08,25.25.17,37.88.26,23.91.17,47.82.34,71.73.48,27.22.18,54.44.36,81.66.56,55.99.4,111.97.77,167.96,1.13-.04-113.29-.23-226.58-.54-339.86-.1-37.73-.12-75.46-.14-113.19,0-38.77-.08-77.54-.23-116.3-.07-21.76-.11-43.51-.08-65.26.02-20.51-.03-41.01-.15-61.52-.03-7.5-.02-14.99,0-22.49.21-51.07-4.48-92.01-29.28-137.61-23.52-36.25-52.73-63.1-90.82-82.99-37.79-18.18-73.82-24.27-115.42-24.07h-9.15c-9.89,0-19.79.02-29.68.05h-20.69c-18.08.03-36.16.06-54.24.1-18.48.03-36.96.05-55.43.07-36.21.03-72.41.09-108.61.16l-.07,7.26c-.22,24.92-.51,49.84-.84,74.77-.12,9.3-.22,18.59-.3,27.9-.12,13.38-.3,26.75-.49,40.12l-.07,12.58c-.29,16.36-.66,29.31-6.56,44.69-9.76,14.37-20.58,24.9-35.56,33.63-14.5,6.63-27.77,8.28-43.66,7.66-17.47-3.19-30.94-11.49-44.55-22.65-8.64-9.52-13.3-19.04-17.38-31.29-.39-9.21-.58-18.33-.62-27.55l-.07-8.49c-.07-9.29-.11-18.58-.14-27.87l-.04-9.63c-.07-16.83-.12-33.65-.16-50.47-.03-17.34-.16-34.68-.3-52.03-.08-13.36-.12-26.72-.13-40.09-.01-6.39-.05-12.78-.12-19.16-.08-8.97-.08-17.94-.05-26.9l-.14-7.92c.16-16.97,3.99-28.99,12-43.95,4.9-7.66,10.29-12.59,17.8-17.69l7.07-4.98C48.53,2.29,58.1,1.36,71.35,1.3M917.08,183.22c-35.77,24.18-61.53,54.82-81.04,93.21-19.54,43.02-19.77,83.65-19.36,130.18,0,7.75,0,15.5,0,23.24,0,20.88.1,41.76.22,62.64.11,21.88.12,43.76.14,65.64.05,36.67.16,73.35.32,110.02.16,37.75.27,75.5.35,113.24v7.07s.08,35.12.08,35.12c.19,96.87.49,193.74.87,290.6,58.44.24,116.88.43,175.32.54,27.14.05,54.27.13,81.42.25,23.65.11,47.32.17,70.97.19,12.52.02,25.04.05,37.57.12,13.99.08,27.99.09,41.99.08l12.5.12c22.54-.09,39.47-2.11,59.94-11.73,13.44-8.49,22.67-18.09,30.85-31.72,5.34-13.63,7.82-24.97,7.82-39.61l.03-9.54-.03-10.45.02-11.12c.01-12.34,0-24.68-.01-37.03l.02-26.49c.01-21.53.01-43.05,0-64.57,0-17.48,0-34.96,0-52.45v-22.68c0-47.36,0-94.73-.02-142.1-.02-40.69-.02-81.37,0-122.04.01-52.24.01-104.47.01-156.71v-7.5c0-17.48,0-34.95,0-52.43,0-23.49,0-46.98-.02-70.47,0-8.64,0-17.3,0-25.94,0-11.75,0-23.5-.02-35.25l.03-10.51-.03-9.46v-8.23l-.44-6.17-3.48-3.47c-9.37-.35-18.75-.52-28.13-.5l-8.94-.03c-9.83-.03-19.65-.05-29.48-.05l-20.49-.03c-14.37-.02-28.74-.03-43.11-.02-18.32,0-36.65-.05-54.97-.11-14.14-.03-28.28-.05-42.42-.05-6.74,0-13.49-.01-20.24-.04-60.95-.23-114.59,4.19-168.28,36.25"/>
      <path class="cls-1" d="M292.14,1336.18l9.85-.05h10.84l11.49-.03c12.78-.03,25.55-.06,38.33-.07l27.4-.07c27.47-.07,54.92-.1,82.38-.14l38.8-.05c54.16-.08,108.3-.12,162.45-.16h8.4c44.91-.03,89.83-.12,134.75-.23,46.12-.12,92.23-.18,138.35-.19,25.89,0,51.79-.03,77.67-.13,22.06-.08,44.1-.1,66.16-.07,11.24.02,22.49,0,33.73-.05,12.21-.06,24.41-.03,36.62,0l10.72-.12c19.3.17,33.34,2.62,50.31,12.04,7.4,5.01,12.35,10.42,17.37,17.8l4.98,7.07c7.25,12.21,8.15,22.88,8.49,36.81-.23,16.6-1.7,29.24-10.09,43.65-9.08,11.3-20.3,19.59-32.71,26.96-9.87,3.29-15.95,3.92-26.18,3.94l-9.85.05h-10.84l-11.49.03c-12.78.03-25.56.05-38.33.07l-27.4.07c-27.47.07-54.92.1-82.38.14l-38.79.05c-54.15.08-108.3.12-162.45.16h-8.4c-44.91.03-89.83.12-134.75.23-46.12.12-92.23.18-138.35.19-25.89,0-51.79.03-77.67.13-22.06.08-44.1.1-66.16.07-11.24-.02-22.49,0-33.73.05-12.21.06-24.41.03-36.62,0l-10.72.12c-19.31-.17-33.34-2.62-50.31-12.04-7.4-5.01-12.36-10.42-17.37-17.8l-4.98-7.07c-7.25-12.21-8.15-22.88-8.49-36.81.22-16.6,1.69-29.24,10.09-43.66,9.08-11.3,20.3-19.58,32.71-26.95,9.87-3.29,15.95-3.92,26.18-3.94M341.54,591.25l15.99-.05c11.15-.03,22.3-.03,33.43,0,14.2.04,28.39-.03,42.59-.13,11-.06,22.01-.06,33.01-.04,5.23,0,10.46-.02,15.7-.06,26.81-.19,50.89.58,75.81,11.54,11.86,7.2,20.46,16.72,27.69,28.48,7.83,16.37,8.6,30.69,8.27,48.64-1.68,13.3-5.63,21.7-13.51,32.42-10.03,11.32-20.12,20.28-33.81,27.11-11.95,3.82-22.21,4.01-34.76,4.09l-7.47.07c-8.13.07-16.25.08-24.37.09l-17.03.07c-11.89.04-23.78.05-35.67.05-15.18,0-30.36.09-45.55.21-11.72.08-23.45.09-35.17.08-5.6.01-11.19.04-16.78.1q-49.11.43-67.17-8.34c-8.93-6.05-15.8-10.99-22.43-19.41l-4.86-5.97c-6.87-9.99-10.88-17.41-12.38-29.6-.22-16.94-.32-32.02,6.81-47.63,7.64-12.87,16.64-21.37,29.11-29.77,26.53-13.27,53.54-12.01,82.53-11.93M972.43,296.27l7.47-.07c8.12-.07,16.25-.08,24.37-.09l17.03-.07c11.89-.04,23.78-.05,35.67-.05,15.18,0,30.36-.09,45.55-.21,11.72-.08,23.45-.09,35.17-.08,5.6-.01,11.19-.04,16.78-.1q49.11-.43,67.16,8.34c8.94,6.05,15.81,10.99,22.43,19.41l4.86,5.97c6.87,9.99,10.88,17.41,12.38,29.6.22,16.94.32,32.02-6.81,47.63-7.64,12.87-16.64,21.37-29.11,29.77-26.53,13.27-53.54,12.01-82.53,11.93l-15.99.05c-11.15.03-22.3.03-33.43,0-14.2-.04-28.39.03-42.59.13-11,.06-22.01.06-33.01.04-5.23,0-10.46.02-15.7.06-26.81.19-50.89-.58-75.81-11.54-11.86-7.2-20.46-16.72-27.69-28.48-7.83-16.37-8.6-30.69-8.27-48.64,1.68-13.3,5.63-21.7,13.51-32.42,10.03-11.32,20.12-20.28,33.81-27.11,11.95-3.82,22.21-4.01,34.76-4.09M305.01,296.27l7.47-.07c8.13-.07,16.25-.08,24.37-.09l17.03-.07c11.89-.04,23.78-.05,35.67-.05,15.18,0,30.36-.09,45.55-.21,11.72-.08,23.45-.09,35.17-.08,5.6-.01,11.19-.04,16.78-.1q49.11-.43,67.17,8.34c8.93,6.05,15.8,10.99,22.43,19.41l4.86,5.97c6.87,9.99,10.88,17.41,12.38,29.6.22,16.94.32,32.02-6.81,47.63-7.64,12.87-16.64,21.37-29.11,29.77-26.53,13.27-53.54,12.01-82.53,11.93l-15.99.05c-11.15.03-22.3.03-33.43,0-14.2-.04-28.39.03-42.59.13-11,.06-22.01.06-33.01.04-5.23,0-10.46.02-15.7.06-26.81.19-50.89-.58-75.81-11.54-11.86-7.2-20.46-16.72-27.69-28.48-7.83-16.37-8.6-30.69-8.27-48.64,1.68-13.3,5.63-21.7,13.51-32.42,10.03-11.32,20.12-20.28,33.81-27.11,11.95-3.82,22.21-4.01,34.76-4.09"/>
      <path class="cls-2" d="M95.63,474.57c10.9,2.84,19.03,6.85,27.81,13.9,10.82,11.77,19.25,23.01,24.33,38.23.38,6.63.56,13.26.62,19.89l.14,12.38.08,13.4.08,13.78c.05,9.64.09,19.28.12,28.92.03,12.29.16,24.58.3,36.87.11,11.78.12,23.57.16,35.36l.19,13.29c-.05,18.49-.11,34.27-8.27,51.13-6.61,10.27-11.45,16.52-21.42,23.3l-7.08,4.99c-12.21,7.25-22.88,8.15-36.81,8.49-16.6-.23-29.24-1.7-43.66-10.09-11.3-9.08-19.58-20.3-26.95-32.71-3.65-10.95-3.98-18.82-4.09-30.32l-.14-12.38-.08-13.4-.08-13.78c-.05-9.64-.09-19.28-.12-28.92-.05-12.29-.14-24.58-.3-36.87-.11-11.78-.12-23.57-.16-35.36l-.19-13.29c.05-18.49.11-34.27,8.27-51.13,6.61-10.27,11.45-16.52,21.42-23.3l7.08-4.98c18.07-10.73,38.44-9.18,58.75-7.4"/>
      <path class="cls-1" d="M1211.47,596.23c14.45,6.46,25.19,14.63,36.06,26.07,7.61,11.72,12.06,21.99,13.89,35.92q.6,26.92-4.45,40.15c-10.76,18.2-24.66,30.84-42.9,41.47-14.96,3.74-29,4.24-44.32,2.39-13.52-3.98-23.75-10.02-33.92-19.76-8.95-10.05-16.65-19.82-21.7-32.38-2.06-16.76-2.31-33.69,2.39-50.01,5.49-12.01,11.78-19.78,21.07-29.29,24.21-16.3,44.98-22.08,73.87-14.56M989,596.23c14.45,6.46,25.19,14.63,36.06,26.07,7.61,11.72,12.06,21.99,13.89,35.92q.6,26.92-4.45,40.15c-10.76,18.2-24.66,30.84-42.9,41.47-14.96,3.74-29,4.24-44.32,2.39-13.52-3.98-23.75-10.02-33.92-19.76-8.95-10.05-16.65-19.82-21.7-32.38-2.06-16.76-2.31-33.69,2.39-50.01,5.49-12.01,11.78-19.78,21.07-29.29,24.21-16.3,44.98-22.08,73.87-14.56"/>
    </g>
  </g>
</svg>