<?xml version="1.0" encoding="UTF-8"?>
<svg id="Capa_2" data-name="Capa 2" xmlns="http://www.w3.org/2000/svg" viewBox="0 0 918.9 185.28">
  <defs>
    <style>
      .cls-1 {
        fill: #adb5bd;
      }

      .cls-2 {
        fill: #6c757d;
      }

      .cls-3 {
        fill: #495057;
      }
    </style>
  </defs>
  <g id="Capa_1-2" data-name="Capa 1">
    <g>
      <path class="cls-3" d="M82.98,139.55V41.74c0-9.56-15.13-22.11-24.36-22.11H19.28v23.61c0,1.4-3.22,5.2-4.53,5.96-5,2.92-12.84.5-14.03-5.39C-.29,38.84-.15,14.24.61,8.84,1.13,5.16,4.2,1.74,7.84,1.08c28.72,1.87,65.24-8.8,85.26,17.8,6.9-9.62,19.79-16.75,31.57-17.88,12.2-1.17,39.63-1.44,51.62-.1,4.02.45,6.96,2.01,8.26,5.98l.38,125.58c-1.18,13.56-11.65,23.86-25.15,25.07-19.19,1.72-43.19-.07-62.97-.02-4.7.01-9.48.01-14.18,0-17.49-.05-42.56,2.07-59.04-.16-13.31-1.8-22.07-13.47-23.08-26.38-.67-8.61-1.93-24.35,10.91-22.91,16.35,1.83-1.16,29.06,17.19,30.78,11.36,1.07,25.06-.34,36.78-.06,1.56.04,17.58,1.66,17.58.78ZM166.92,19.64c-20,1.94-49.03-8.18-61.09,13.48-.81,1.46-3.36,6.63-3.36,7.88v98.55h55.83c2.93,0,8.62-5.49,8.62-8.62V19.64Z"/>
      <path class="cls-2" d="M544.64,147.79h-25.86l-20.98-38.22h-13.86v38.22h-23.23V36.87h48.34c9.28,0,21.59,7.69,26.91,15.06,13.47,18.63,6.5,44.48-14.54,53.56l23.23,42.3ZM483.93,87.09h23.61c1.18,0,7.11-3.45,8.17-4.57,5.93-6.23,4.12-16.36-3.05-20.79-.94-.58-5.12-2.37-5.87-2.37h-22.86v27.73Z"/>
      <path class="cls-2" d="M816.31,63.85l.98,1.26.9,9.98c3.06-2.92,4.87-5.87,8.59-8.26,12.12-7.79,30.31-3.71,36.38,9.76,1.32.91,4.11-4.49,5.21-5.64,7.61-7.89,17.4-9.58,27.9-6.88,31.53,8.11,20.14,60.08,22.33,83.72h-21.73v-48.34c0-.98-1.38-5.88-1.88-7.12-4.77-11.79-21.08-10.62-24.89,1.33-.46,1.43-1.71,6.89-1.71,8.03v46.09h-20.98v-46.84c0-.58-.99-5.31-1.26-6.24-4.05-14.15-21.22-14.31-25.51-.3-.46,1.49-1.71,6.86-1.71,8.03v45.34h-20.98V63.85h18.36Z"/>
      <path class="cls-2" d="M364.02,29.38v118.41h-20.24l-.76-12.74c-25.15,31-66.2,7.04-66.41-28.98-.18-30.11,30.2-55.14,58.11-37.28l7.56,7.8V29.38h21.73ZM315.86,84.27c-25.49,4.01-22.61,48.16,9.38,43.11,25.48-4.02,21.4-47.95-9.38-43.11Z"/>
      <polygon class="cls-2" points="271.84 36.87 271.84 57.86 224.63 57.86 224.63 81.09 268.84 81.09 268.84 101.33 224.63 101.33 224.63 126.06 273.34 126.06 273.34 147.79 202.14 147.79 202.14 36.87 271.84 36.87"/>
      <path class="cls-2" d="M564.13,114.82c4.01,14.04,21.94,17.54,34.01,11.9,2.79-1.31,4.72-3.87,7.53-4.43.87.08,13.81,8.08,14.93,9.13.54.5,1.49.64,1.21,1.71-18.76,21.8-56.58,22.23-73.28-2.33-23.55-34.64,9.94-79.04,49.73-65.47,12.03,4.11,28.08,20.93,28.08,34.13v14.24l-1.12,1.12h-61.08ZM603.85,97.58c-3.04-19.16-36.28-19.6-39.72,0h39.72Z"/>
      <path class="cls-2" d="M742.33,63.31c41.55-5.01,66.6,44.1,36.81,73.53-28.67,28.33-76.26,5.44-73.36-34.39,1.38-18.93,17.5-36.85,36.55-39.15ZM745.31,85.03c-26.28,3.79-22.1,45.17,5.72,42.44,28.02-2.75,23.75-46.69-5.72-42.44Z"/>
      <path class="cls-2" d="M394,64.6v49.09c0,1.03,2.36,6.21,3.12,7.37,6.47,9.82,21.8,8.9,27.76-1.22.82-1.39,2.84-7.1,2.84-8.4v-46.84h21.73v83.19h-20.24l-.76-11.24c-9.78,13.13-25.85,16.71-40.21,8.37-8.51-4.94-15.99-18.5-15.99-28.23v-52.09h21.73Z"/>
      <path class="cls-2" d="M687.86,93.03c-6.22-9.52-20.82-10.53-29.66-3.67-18.5,14.34-3.89,43.84,19.68,36.91,5.55-1.63,7.27-4.41,11.64-7.61l16.96,12.2c-14.32,19.94-42.83,25.05-62.18,9.07-35.66-29.46-8.37-85.81,36.74-75.71,9.11,2.04,20.3,8.78,24.62,17.15l-17.81,11.66Z"/>
      <path class="cls-1" d="M35.56,166.7l113-.17c11.13-.02,11.89,17.54,1.51,18.76l-114.64-.06c-9.71-3.28-9.88-15.38.13-18.52Z"/>
      <path class="cls-1" d="M30.77,53.86c-4.98-4.98-2.26-14.93,4.66-16.2,3.88-.71,28.2-.64,32.02.14,9.7,1.98,9.61,16.94-.63,18.52-5.61.86-24.07.72-29.93.05-1.94-.22-4.75-1.13-6.12-2.5Z"/>
      <path class="cls-1" d="M36.32,74.52c5.74-.97,21.45-.73,27.58-.21s10.64,2.8,10.87,9.42c.14,3.88-3.33,8.69-7.2,9.3-9.76,1.54-23.35-.93-33.53-.11-8.53-4.5-7.51-16.76,2.27-18.4Z"/>
      <path class="cls-3" d="M8.61,59.5c5.31-.73,10.05,3.2,10.68,8.45.48,3.97.61,21.13-.17,24.59-2,8.85-17.29,8.8-18.6-2.07C-.02,85.95-.02,71.06.88,66.81c.81-3.84,3.83-6.77,7.74-7.31Z"/>
      <path class="cls-1" d="M117.99,37.78l33.23.18c8.72,4.16,8.2,16.96-1.98,18.34-5.41.73-26.01.79-31.08-.27-9.43-1.97-8.74-15.28-.18-18.25Z"/>
      <path class="cls-1" d="M119.53,74.49c11.69-1.62,14.13,16.53,3.51,18.55-14,2.66-15.87-16.84-3.51-18.55Z"/>
      <path class="cls-1" d="M141.67,76.83c12.61-10.7,22.46,12.79,9.7,16.06-11.03,2.83-16.45-10.35-9.7-16.06Z"/>
    </g>
  </g>
</svg>
